<?xml version="1.0" encoding="utf-8"?>
<!-- Generator: Adobe Illustrator 16.0.0, SVG Export Plug-In . SVG Version: 6.00 Build 0)  -->
<!DOCTYPE svg PUBLIC "-//W3C//DTD SVG 1.1//EN" "http://www.w3.org/Graphics/SVG/1.1/DTD/svg11.dtd">
<svg version="1.1" id="Layer_1" xmlns="http://www.w3.org/2000/svg" xmlns:xlink="http://www.w3.org/1999/xlink" x="0px" y="0px"
	 width="233.667px" height="71px" viewBox="0 0 233.667 71" enable-background="new 0 0 233.667 71" xml:space="preserve">
<g>
	<linearGradient id="SVGID_1_" gradientUnits="userSpaceOnUse" x1="197.415" y1="0" x2="197.415" y2="70.6519">
		<stop  offset="0" style="stop-color:#2BBBAD"/>
		<stop  offset="0.0766" style="stop-color:#2BBBAD"/>
		<stop  offset="0.9" style="stop-color:#01959F"/>
		<stop  offset="1" style="stop-color:#01959F"/>
	</linearGradient>
	<path fill="url(#SVGID_1_)" d="M217.203,39.767v10.305h3.225l-7.752,10.952l-7.75-10.951h3.117V39.829h-12.307v10.429v4.291h0.002
		c0,2.146-0.406,4.196-1.219,6.149c-0.811,1.95-1.932,3.657-3.359,5.122c-1.428,1.463-3.102,2.635-5.018,3.513
		s-3.977,1.318-6.184,1.318c-1.885,0-3.801-0.261-5.746-0.782c-1.949-0.521-3.703-1.414-5.262-2.684
		c-1.559-1.269-2.84-2.943-3.848-5.025c-1.006-2.081-1.508-4.717-1.508-7.905V16.004c0-2.277,0.389-4.392,1.168-6.343
		c0.779-1.951,1.885-3.643,3.311-5.074c1.432-1.431,3.135-2.553,5.117-3.368c1.977-0.811,4.17-1.219,6.57-1.219
		c2.273,0,4.383,0.408,6.332,1.219c1.947,0.814,3.639,1.952,5.064,3.417c1.428,1.464,2.549,3.22,3.359,5.27
		c0.811,2.05,1.219,4.277,1.219,6.684v3.904v10.149h12.074l-0.004-10.269l-3.221,0.011l7.715-10.977l7.785,10.925l-3.117,0.011
		l-0.002,10.243l14.268-0.002l-0.002,9.181L217.203,39.767z M185.801,50.258l-0.002-29.764v-3.319c0-1.951-0.549-3.642-1.654-5.073
		c-1.104-1.432-2.596-2.147-4.48-2.147c-2.467,0-4.105,0.764-4.918,2.293c-0.811,1.529-1.217,3.464-1.217,5.806v35.521
		c0,2.017,0.438,3.708,1.314,5.073c0.875,1.367,2.451,2.051,4.725,2.051c0.648,0,1.346-0.114,2.094-0.342
		c0.746-0.229,1.428-0.603,2.045-1.123s1.121-1.235,1.51-2.146c0.393-0.91,0.584-2.049,0.584-3.415V50.258z"/>
	
		<linearGradient id="SVGID_2_" gradientUnits="userSpaceOnUse" x1="4.882812e-04" y1="70.7451" x2="1.0005" y2="70.7451" gradientTransform="matrix(-3.100000e-06 71.7171 71.7171 3.100000e-06 -4931.6665 0.5623)">
		<stop  offset="0" style="stop-color:#2BBBAD"/>
		<stop  offset="0.0766" style="stop-color:#2BBBAD"/>
		<stop  offset="0.9" style="stop-color:#01959F"/>
		<stop  offset="1" style="stop-color:#01959F"/>
	</linearGradient>
	<polygon fill="url(#SVGID_2_)" points="125.79,0.585 125.79,9.952 135.726,9.952 136.94,9.952 136.939,70.065 146.875,70.065 
		146.875,39.919 146.875,30.733 146.876,30.733 146.876,9.952 148.089,9.952 158.025,9.952 158.025,0.585 	"/>
	
		<linearGradient id="SVGID_3_" gradientUnits="userSpaceOnUse" x1="-4.882812e-04" y1="70.7402" x2="0.9995" y2="70.7402" gradientTransform="matrix(-3.100000e-06 70.6509 70.6509 3.100000e-06 -4893.9624 -2.212524e-04)">
		<stop  offset="0" style="stop-color:#2BBBAD"/>
		<stop  offset="0.0766" style="stop-color:#2BBBAD"/>
		<stop  offset="0.9" style="stop-color:#01959F"/>
		<stop  offset="1" style="stop-color:#01959F"/>
	</linearGradient>
	<path fill="url(#SVGID_3_)" d="M119.967,50.258V20.494V16.59c0-2.407-0.408-4.634-1.219-6.684c-0.81-2.05-1.932-3.806-3.359-5.27
		c-1.428-1.465-3.118-2.603-5.064-3.417C108.376,0.408,106.267,0,103.994,0c-2.401,0-4.594,0.408-6.573,1.219
		c-1.981,0.815-3.685,1.937-5.115,3.368c-1.428,1.431-2.532,3.123-3.311,5.074c-0.779,1.951-1.168,4.066-1.168,6.343v38.251
		c0,3.188,0.502,5.824,1.508,7.905c1.008,2.082,2.289,3.757,3.847,5.025c1.56,1.27,3.313,2.163,5.262,2.684
		c1.946,0.521,3.862,0.782,5.745,0.782c2.208,0,4.27-0.44,6.186-1.318c1.915-0.878,3.587-2.05,5.017-3.513
		c1.427-1.465,2.548-3.172,3.359-5.122c0.812-1.953,1.219-4.003,1.219-6.149h-0.002V50.258z M110.032,53.673
		c0,1.366-0.193,2.505-0.584,3.415c-0.39,0.911-0.893,1.626-1.509,2.146c-0.618,0.521-1.299,0.894-2.045,1.123
		c-0.749,0.228-1.446,0.342-2.094,0.342c-2.275,0-3.85-0.684-4.726-2.051c-0.876-1.365-1.313-3.057-1.313-5.073V18.054
		c0-2.342,0.405-4.277,1.217-5.806s2.451-2.293,4.917-2.293c1.885,0,3.378,0.715,4.481,2.147c1.105,1.431,1.655,3.122,1.655,5.073
		v3.319l0.001,29.764V53.673z"/>
	
		<linearGradient id="SVGID_4_" gradientUnits="userSpaceOnUse" x1="0" y1="70.7363" x2="1" y2="70.7363" gradientTransform="matrix(-3.000000e-06 69.48 69.48 3.000000e-06 -4850.6411 0.5623)">
		<stop  offset="0" style="stop-color:#2BBBAD"/>
		<stop  offset="0.0766" style="stop-color:#2BBBAD"/>
		<stop  offset="0.9" style="stop-color:#01959F"/>
		<stop  offset="1" style="stop-color:#01959F"/>
	</linearGradient>
	<path fill="url(#SVGID_4_)" d="M77.896,31.373c1.266-2.895,1.899-6.359,1.899-10.393c0-13.597-5.844-20.395-17.532-20.395H46.289
		v69.48h9.935V39.885h5.784l9.41,30.181h10.52L71.224,38.35C74.407,36.594,76.629,34.268,77.896,31.373z M69.566,24.79
		c-0.195,1.278-0.568,2.356-1.12,3.229c-0.552,0.873-1.347,1.544-2.386,2.012c-1.039,0.468-2.435,0.702-4.188,0.702h-5.649V9.955
		h5.161c1.819,0,3.28,0.218,4.384,0.655c1.103,0.436,1.964,1.107,2.582,2.012c0.615,0.905,1.021,1.997,1.216,3.276
		c0.196,1.278,0.292,2.762,0.292,4.446C69.858,22.029,69.763,23.511,69.566,24.79z"/>
	<g>
		
			<linearGradient id="SVGID_5_" gradientUnits="userSpaceOnUse" x1="0" y1="70.8076" x2="1" y2="70.8076" gradientTransform="matrix(-3.000000e-06 69.4688 69.4688 3.000000e-06 -4891.4688 0.6248)">
			<stop  offset="0" style="stop-color:#2BBBAD"/>
			<stop  offset="0.0766" style="stop-color:#2BBBAD"/>
			<stop  offset="0.9" style="stop-color:#01959F"/>
			<stop  offset="1" style="stop-color:#01959F"/>
		</linearGradient>
		<polygon fill="url(#SVGID_5_)" points="38.308,0.597 26.833,0.597 14.162,31.323 14.162,40.932 28.582,70.065 40.669,70.065 
			23.673,35.89 		"/>
		
			<linearGradient id="SVGID_6_" gradientUnits="userSpaceOnUse" x1="-322.3809" y1="291.1885" x2="-318.2621" y2="287.0696" gradientTransform="matrix(8.6389 -3.5327 3.5327 8.6389 1755.8936 -3569.1245)">
			<stop  offset="0.0968" style="stop-color:#0095D5"/>
			<stop  offset="0.3007" style="stop-color:#238AD9"/>
			<stop  offset="0.6211" style="stop-color:#557BDE"/>
			<stop  offset="0.8643" style="stop-color:#7472E2"/>
			<stop  offset="1" style="stop-color:#806EE3"/>
		</linearGradient>
		<polygon fill="url(#SVGID_6_)" points="14.162,40.932 14.162,31.323 14.162,31.047 4.251,54.67 4.251,70.065 14.162,70.065 		"/>
		
			<linearGradient id="SVGID_7_" gradientUnits="userSpaceOnUse" x1="-324.2686" y1="290.3486" x2="-316.156" y2="282.2361" gradientTransform="matrix(8.6389 -3.5327 3.5327 8.6389 1755.8936 -3569.1245)">
			<stop  offset="0.1075" style="stop-color:#C757BC"/>
			<stop  offset="0.2138" style="stop-color:#D0609A"/>
			<stop  offset="0.4254" style="stop-color:#E1725C"/>
			<stop  offset="0.6048" style="stop-color:#EE7E2F"/>
			<stop  offset="0.743" style="stop-color:#F58613"/>
			<stop  offset="0.8232" style="stop-color:#F88909"/>
		</linearGradient>
		<polygon fill="url(#SVGID_7_)" points="14.162,0.597 4.251,0.597 4.251,54.67 14.162,31.047 		"/>
	</g>
</g>
</svg>
